<svg width="40" height="40" viewBox="0 0 40 40" fill="none" xmlns="http://www.w3.org/2000/svg">
<circle cx="20" cy="20" r="20" fill="#EDF1FF"/>
<path d="M20 11.25C22.7773 11.25 25.0625 13.5352 25.0625 16.3125V18H25.625C26.8555 18 27.875 19.0195 27.875 20.25V27C27.875 28.2656 26.8555 29.25 25.625 29.25H14.375C13.1094 29.25 12.125 28.2656 12.125 27V20.25C12.125 19.0195 13.1094 18 14.375 18H14.9375V16.3125C14.9375 13.5352 17.1875 11.25 20 11.25ZM20 13.5C18.418 13.5 17.1875 14.7656 17.1875 16.3125V18H22.8125V16.3125C22.8125 14.7656 21.5469 13.5 20 13.5ZM21.125 22.5C21.125 21.9023 20.5977 21.375 20 21.375C19.3672 21.375 18.875 21.9023 18.875 22.5V24.75C18.875 25.3828 19.3672 25.875 20 25.875C20.5977 25.875 21.125 25.3828 21.125 24.75V22.5Z" fill="url(#paint0_angular_3490_542)"/>
<defs>
<radialGradient id="paint0_angular_3490_542" cx="0" cy="0" r="1" gradientUnits="userSpaceOnUse" gradientTransform="translate(20 20) rotate(90) scale(9 8)">
<stop stop-color="#3757D9"/>
<stop offset="1" stop-color="#9AA9EE"/>
</radialGradient>
</defs>
</svg>
