<svg width="243" height="265" viewBox="0 0 243 265" fill="none" xmlns="http://www.w3.org/2000/svg">
<g opacity="0.5">
<path d="M135.465 270.317L154.89 306.818L153.203 308.583C151.587 311.143 149.239 313.242 146.409 314.659C143.578 316.075 140.372 316.755 137.13 316.626L67.7057 310.812C64.4863 310.676 61.3371 309.841 58.5155 308.377C55.6938 306.914 53.2801 304.863 51.4721 302.393C48.0895 296.815 6.50348 223.371 6.50348 223.371C2.41657 217.416 0.316536 210.512 0.46629 203.523L9.37298 97.1749C10.2004 91.0453 13.1611 85.3525 17.8162 80.9393L91.9519 7.51605C93.9794 5.29047 96.5273 3.51366 99.4108 2.31442C102.294 1.11519 105.441 0.523124 108.625 0.581671L234.858 11.1537C237.708 11.3888 240.463 12.2609 242.88 13.694C245.296 15.1272 247.302 17.0775 248.721 19.3742L315.305 105.995C317.411 107.985 319.023 110.369 320.029 112.977C321.034 115.586 321.408 118.357 321.124 121.096L311.794 232.491C311.869 238.662 309.887 244.678 306.116 249.735C301.435 255.979 254.404 315.576 254.404 315.576C252.899 317.921 246.072 325.891 240.49 325.424L178.1 320.199C174.903 319.898 171.848 318.785 169.278 316.986C166.709 315.187 164.726 312.772 163.554 310.014L118.073 223.326C113.207 212.904 112.488 201.291 116.045 190.541C119.163 181.701 124.332 173.61 131.198 166.819L192.351 283.341C192.942 284.49 193.827 285.492 194.93 286.262C196.033 287.031 197.321 287.543 198.68 287.754L219.63 289.509C221.271 289.76 222.95 289.599 224.487 289.044C226.025 288.489 227.364 287.561 228.363 286.357C230.927 283.325 269.99 233.367 269.99 233.367C272.494 230.117 273.961 226.282 274.229 222.285L281.896 130.73C282.017 126.096 280.385 121.543 277.278 117.847C274.354 114.143 228.071 52.6608 228.071 52.6608C226.777 50.3861 224.948 48.3986 222.721 46.8439C220.493 45.2893 217.921 44.2067 215.195 43.6757L127.726 36.3502C125.105 36.1681 122.481 36.5179 120.041 37.375C117.6 38.2322 115.403 39.5755 113.606 41.3092C112.664 42.2153 109.749 45.0469 105.699 48.9799L105.569 49.1054C90.1226 64.1061 58.4991 94.816 56.4886 96.3198C51.279 100.48 47.7894 106.162 46.5924 112.434L39.999 191.162C39.1099 196.933 40.116 202.842 42.8892 208.135L77.4514 270.753C77.6894 271.032 77.9562 271.373 78.255 271.756L78.2777 271.785L78.2779 271.785C80.1825 274.224 83.3737 278.309 88.6386 278.75L114.558 280.921C118.634 281.548 122.803 280.982 126.474 279.306C129.976 276.771 133.01 273.737 135.465 270.317Z" fill="url(#paint0_linear_1295_34481)"/>
<path d="M114.189 121.202L189.291 263.318C196.787 256.536 202.283 248.113 205.279 238.819C208.512 226.251 206.345 212.954 199.227 201.673L154.146 117.56C153.78 116.834 153.428 116.18 153.101 115.574C151.835 113.225 150.951 111.586 151.152 109.19C151.275 107.717 151.713 106.285 152.442 104.976C153.171 103.666 154.176 102.505 155.399 101.559C156.622 100.612 158.04 99.8993 159.571 99.4599C161.103 99.0205 162.718 98.8634 164.324 98.998C165.931 99.1325 167.497 99.556 168.934 100.244C170.371 100.932 171.651 101.871 172.699 103.008C173.748 104.144 174.546 105.456 175.047 106.869C175.547 108.281 175.741 109.766 175.618 111.239C175.228 114.056 173.847 116.666 171.685 118.675L165.44 125.212L184.906 162.14C184.906 162.14 204.594 139.433 208.104 134.292C212.119 128.327 214.581 121.578 215.3 114.563C216.105 108.176 215.495 101.687 213.507 95.4842C211.519 89.2817 208.194 83.4935 203.73 78.4656C199.266 73.4378 193.756 69.2737 187.529 66.2233C181.303 63.173 174.488 61.2987 167.492 60.7128C160.497 60.1269 153.465 60.8415 146.817 62.8137C140.17 64.7859 134.044 67.9754 128.806 72.1907C123.568 76.406 119.326 81.5605 116.334 87.3459C113.342 93.1314 111.662 99.4284 111.393 105.86C110.745 111.093 111.713 116.408 114.189 121.202Z" fill="url(#paint1_linear_1295_34481)"/>
</g>
<defs>
<linearGradient id="paint0_linear_1295_34481" x1="50.5" y1="-97.5" x2="417.479" y2="786.009" gradientUnits="userSpaceOnUse">
<stop stop-color="white" stop-opacity="0"/>
<stop offset="1" stop-color="white"/>
</linearGradient>
<linearGradient id="paint1_linear_1295_34481" x1="50.5" y1="-97.5" x2="417.479" y2="786.009" gradientUnits="userSpaceOnUse">
<stop stop-color="white" stop-opacity="0"/>
<stop offset="1" stop-color="white"/>
</linearGradient>
</defs>
</svg>
